<svg xmlns="http://www.w3.org/2000/svg" width="300.1802978515625" height="249.80682373046875" viewBox="-230.04034423828125 -145.4857635498047 300.1802978515625 249.80682373046875"><title>Neo4j Graph Visualization</title><desc>Created using Neo4j (http://www.neo4j.com/)</desc><g class="layer relationships"><g class="relationship" transform="translate(25.701585622881627 75.32107870050218) rotate(275.0183142460013)"><path class="outline" fill="#A5ABB6" stroke="none" d="M 21.40063509461097,12.933012701892217 L 21.90063509461097,12.06698729810778 A 97.30336462656425 97.30336462656425 0 0 0 38.20354763167033,19.568542858797215 L 37.87109489583357,20.511662776111365 A 98.30336462656425 98.30336462656425 0 0 1 21.40063509461097,12.933012701892217 Z M 98.87201685737654,21.9355872018466 L 98.58393211524117,20.97798228260862 A 97.30336462656425 97.30336462656425 0 0 0 115.21911001712454,14.245289716197481 L 113.84196978829516,11.580053368302648 L 121.6675182003507,11.47616857357809 L 117.05529698889703,17.79893818005726 L 115.67815676006765,15.133701832162425 A 98.30336462656425 98.30336462656425 0 0 1 98.87201685737654,21.9355872018466"/><text text-anchor="middle" pointer-events="none" font-size="8px" fill="#000000" x="68.26994741141411" y="28.57653160657891" font-family="sans-serif">PublicTransport</text></g><g class="relationship" transform="translate(38.28717800658105 -68.00522826609662) rotate(199.37273822997327)"><path class="outline" fill="#A5ABB6" stroke="none" d="M 25 0.5 L 59.90821313630187 0.5 L 59.90821313630187 -0.5 L 25 -0.5 Z M 79.24415063630187 0.5 L 114.15236377260374 0.5 L 114.15236377260374 3.5 L 121.15236377260374 0 L 114.15236377260374 -3.5 L 114.15236377260374 -0.5 L 79.24415063630187 -0.5 Z"/><text text-anchor="middle" pointer-events="none" font-size="8px" fill="#000000" x="69.57618188630187" y="3" transform="rotate(180 69.57618188630187 0)" font-family="sans-serif">trek</text></g><g class="relationship" transform="translate(-99.5901260329172 -116.48576525898945) rotate(493.8913275395582)"><path class="outline" fill="#A5ABB6" stroke="none" d="M 25 0.5 L 59.99752979597213 0.5 L 59.99752979597213 -0.5 L 25 -0.5 Z M 79.33346729597213 0.5 L 114.33099709194425 0.5 L 114.33099709194425 3.5 L 121.33099709194425 0 L 114.33099709194425 -3.5 L 114.33099709194425 -0.5 L 79.33346729597213 -0.5 Z"/><text text-anchor="middle" pointer-events="none" font-size="8px" fill="#000000" x="69.66549854597213" y="3" transform="rotate(180 69.66549854597213 0)" font-family="sans-serif">trek</text></g><g class="relationship" transform="translate(25.701585622881627 75.32107870050218) rotate(275.0183142460013)"><path class="outline" fill="#A5ABB6" stroke="none" d="M 25 0.5 L 57.43305117473716 0.5 L 57.43305117473716 -0.5 L 25 -0.5 Z M 79.44476992473716 0.5 L 111.87782109947432 0.5 L 111.87782109947432 3.5 L 118.87782109947432 0 L 111.87782109947432 -3.5 L 111.87782109947432 -0.5 L 79.44476992473716 -0.5 Z"/><text text-anchor="middle" pointer-events="none" font-size="8px" fill="#000000" x="68.43891054973716" y="3" font-family="sans-serif">road</text></g><g class="relationship" transform="translate(25.701585622881627 75.32107870050218) rotate(275.0183142460013)"><path class="outline" fill="#A5ABB6" stroke="none" d="M 21.40063509461097,-12.933012701892217 L 21.90063509461097,-12.06698729810778 A 97.30336462656425 97.30336462656425 0 0 1 58.692429603591435,-24.37768643956602 L 58.57054391289803,-25.37023058387608 A 98.30336462656425 98.30336462656425 0 0 0 21.40063509461097,-12.933012701892217 Z M 77.96841262762332,-25.823028643018787 L 77.89297171827192,-24.825878368889434 A 97.30336462656425 97.30336462656425 0 0 1 115.21911001712454,-14.245289716197481 L 113.84196978829516,-11.580053368302648 L 121.6675182003507,-11.47616857357809 L 117.05529698889703,-17.79893818005726 L 115.67815676006765,-15.133701832162425 A 98.30336462656425 98.30336462656425 0 0 0 77.96841262762332,-25.823028643018787"/><text text-anchor="middle" pointer-events="none" font-size="8px" fill="#000000" x="68.2699474114141" y="-22.57653160657891" font-family="sans-serif">trek</text></g></g><g class="layer nodes"><g class="node" aria-label="graph-node182" transform="translate(25.701585622881627,75.32107870050218)"><circle class="outline" cx="0" cy="0" r="25" fill="#F16667" stroke="#eb2728" stroke-width="2px"/><text class="caption" text-anchor="middle" pointer-events="none" x="0" y="5" font-size="10px" fill="#FFFFFF" font-family="sans-serif"> Darjeeling</text></g><g class="node" aria-label="graph-node184" transform="translate(-201.04034623108555,-11.031445614577763)"><circle class="outline" cx="0" cy="0" r="25" fill="#57C7E3" stroke="#23b3d7" stroke-width="2px"/><text class="caption" text-anchor="middle" pointer-events="none" x="0" y="5" font-size="10px" fill="#2A2C34" font-family="sans-serif"> Sandakp…</text></g><g class="node" aria-label="graph-node181" transform="translate(38.28717800658105,-68.00522826609662)"><circle class="outline" cx="0" cy="0" r="25" fill="#F16667" stroke="#eb2728" stroke-width="2px"/><text class="caption" text-anchor="middle" pointer-events="none" x="0" y="5" font-size="10px" fill="#FFFFFF" font-family="sans-serif"> Rimbik</text></g><g class="node" aria-label="graph-node183" transform="translate(-99.5901260329172,-116.48576525898945)"><circle class="outline" cx="0" cy="0" r="25" fill="#D9C8AE" stroke="#c0a378" stroke-width="2px"/><text class="caption" text-anchor="middle" pointer-events="none" x="0" y="5" font-size="10px" fill="#2A2C34" font-family="sans-serif"> BhikeBh…</text></g></g></svg>